<svg version="1.1" xmlns="http://www.w3.org/2000/svg" xmlns:xlink="http://www.w3.org/1999/xlink" x="0px" y="0px"
	 viewBox="0 0 24 24" style="enable-background:new 0 0 24 24;" xml:space="preserve">
	<style type="text/css">
		.st0{opacity:0.85;}
		.st1{fill:#FFFFFF;}
	</style>
	<g transform="translate(42 189)" class="st0">
		<g>
			<g transform="matrix(1, 0, 0, 1, -42, -189)">
				<path class="st1" d="M12,0C5.4,0,0,5.4,0,12s5.4,12,12,12s12-5.4,12-12C24,5.4,18.6,0,12,0z M17.6,13.1h-4.5v4.5
					c0,0.6-0.5,1.1-1.1,1.1c0,0,0,0,0,0c-0.6,0-1.1-0.5-1.1-1.1v-4.5H6.4c-0.6,0-1.1-0.5-1.1-1.1c0-0.6,0.5-1.1,1.1-1.1c0,0,0,0,0,0
					h4.5V6.4c0-0.6,0.5-1.1,1.1-1.1c0,0,0,0,0,0c0.6,0,1.1,0.5,1.1,1.1v0v4.5h4.5c0.6,0,1.1,0.5,1.1,1.1c0,0,0,0,0,0
					C18.7,12.6,18.2,13.1,17.6,13.1z"/>
			</g>
		</g>
	</g>
</svg>
