<svg version="1.1" xmlns="http://www.w3.org/2000/svg" xmlns:xlink="http://www.w3.org/1999/xlink" x="0px" y="0px"
	 viewBox="0 0 36 36" style="enable-background:new 0 0 36 36;" xml:space="preserve">
	<style type="text/css">
		.st0{fill:#0077C2;}
		.st1{fill:#FFFFFF;}
	</style>
	<g transform="translate(1690 1979)">
		<path class="st0" d="M-1672-1978c9.4,0,17,7.6,17,17c0,9.4-7.6,17-17,17s-17-7.6-17-17
			C-1689-1970.4-1681.4-1978-1672-1978z" />
		<g transform="matrix(1, 0, 0, 1, -1690, -1979)">
			<path class="st1" d="M36,18c0-9.9-8-18-18-18S0,8,0,18c0,5.1,2.1,9.9,5.8,13.3l0,0l0.6,0.5c0,0,0.1,0.1,0.1,0.1
				c0.3,0.3,0.6,0.5,1,0.7c0.1,0.1,0.2,0.2,0.3,0.2c0.3,0.2,0.7,0.5,1.1,0.7c0.1,0,0.2,0.1,0.2,0.1c0.4,0.2,0.8,0.4,1.2,0.6l0.1,0
				c1.4,0.6,2.9,1.1,4.4,1.4l0.1,0c0.5,0.1,1,0.1,1.4,0.2l0.2,0c0.5,0,1,0.1,1.5,0.1s1,0,1.5-0.1l0.2,0c0.5,0,1-0.1,1.4-0.2l0.1,0
				c1.5-0.3,2.9-0.7,4.3-1.3l0.1-0.1c0.4-0.2,0.8-0.4,1.2-0.6c0.1-0.1,0.2-0.1,0.3-0.2c0.4-0.2,0.7-0.4,1-0.7
				c0.1-0.1,0.2-0.2,0.4-0.3c0.3-0.2,0.6-0.4,0.8-0.6c0.1,0,0.1-0.1,0.2-0.1l0.6-0.5l0,0C33.9,27.9,36,23.1,36,18z M1.3,18
				C1.3,8.8,8.8,1.3,18,1.3S34.7,8.8,34.7,18c0,4.8-2,9.3-5.6,12.5c-0.2-0.1-0.4-0.2-0.6-0.4l-5.5-2.8c-0.5-0.2-0.8-0.7-0.8-1.3v-1.9
				c0.1-0.2,0.3-0.3,0.4-0.5c0.7-1,1.3-2.2,1.7-3.4c0.8-0.4,1.4-1.2,1.4-2.2v-2.3c0-0.6-0.2-1.1-0.6-1.6v-3.1
				c0.1-1.4-0.3-2.8-1.2-3.8c-1.2-1.4-3.2-2.1-5.8-2.1s-4.6,0.7-5.8,2.1c-0.9,1.1-1.3,2.4-1.2,3.8v3.1c-0.4,0.4-0.6,1-0.6,1.6v2.3
				c0,0.7,0.3,1.4,0.9,1.8c0.4,1.5,1.1,2.9,2,4.2V26c0,0.5-0.3,1-0.8,1.3l-5.2,2.8c-0.2,0.1-0.3,0.2-0.5,0.3
				C3.3,27.3,1.3,22.8,1.3,18z M27.8,31.5c-0.2,0.2-0.5,0.3-0.7,0.5c-0.1,0.1-0.2,0.1-0.3,0.2c-0.3,0.2-0.6,0.4-0.9,0.5
				c-0.1,0-0.1,0.1-0.2,0.1c-0.7,0.4-1.5,0.7-2.3,1l-0.1,0c-0.4,0.1-0.8,0.3-1.2,0.4l0,0c-0.4,0.1-0.9,0.2-1.3,0.3l0,0
				c-0.4,0.1-0.8,0.1-1.2,0.2c-0.1,0-0.1,0-0.2,0c-0.4,0-0.8,0-1.2,0s-0.8,0-1.2-0.1c-0.1,0-0.1,0-0.2,0c-0.4,0-0.8-0.1-1.2-0.2
				l-0.1,0c-0.9-0.1-1.7-0.4-2.5-0.6l-0.1,0c-0.4-0.1-0.8-0.3-1.2-0.5h0c-0.4-0.2-0.7-0.3-1.1-0.5c0,0-0.1,0-0.1-0.1
				c-0.3-0.2-0.7-0.4-1-0.6C9.1,32.1,9,32,8.9,32c-0.3-0.2-0.6-0.4-0.9-0.6l-0.1-0.1l0.1,0l5.2-2.8C14,28,14.6,27,14.6,26v-2.4
				l-0.2-0.2c-0.9-1.2-1.6-2.6-2-4.1l-0.1-0.3L12.2,19c-0.3-0.2-0.5-0.5-0.5-0.9v-2.3c0-0.3,0.1-0.6,0.4-0.8l0.2-0.2v-3.6l0-0.1
				c-0.1-1,0.2-2.1,0.9-2.9c0.9-1.1,2.6-1.6,4.8-1.6s3.9,0.5,4.8,1.6c0.7,0.8,1,1.8,0.9,2.9l0,3.7l0.2,0.2c0.2,0.2,0.4,0.5,0.4,0.8
				v2.3c0,0.5-0.3,0.9-0.8,1l-0.3,0.1l-0.1,0.3c-0.4,1.2-0.9,2.3-1.6,3.3c-0.2,0.2-0.3,0.5-0.5,0.6l-0.2,0.2v2.4c0,1,0.6,2,1.5,2.5
				l5.5,2.8l0.1,0.1C27.9,31.4,27.9,31.5,27.8,31.5z" />
		</g>
	</g>
</svg>
