<svg xmlns="http://www.w3.org/2000/svg" xmlns:xlink="http://www.w3.org/1999/xlink" viewBox="25.848 436.688 55.296 55.299">
  <defs>
    <style>
      .cls-1 {
        opacity: 0.85;
      }

      .cls-2 {
        fill: #fff;
      }

      .cls-3 {
        filter: url(#Path_50);
      }

      .cls-4 {
        filter: url(#Path_49);
      }

      .cls-5 {
        filter: url(#Path_48);
      }

      .cls-6 {
        filter: url(#Path_47);
      }
    </style>
    <filter id="Path_47" x="41.147" y="436.688" width="26.815" height="26.888" filterUnits="userSpaceOnUse">
      <feOffset dy="3" input="SourceAlpha"/>
      <feGaussianBlur stdDeviation="3" result="blur"/>
      <feFlood flood-opacity="0.161"/>
      <feComposite operator="in" in2="blur"/>
      <feComposite in="SourceGraphic"/>
    </filter>
    <filter id="Path_48" x="38.961" y="445.576" width="31.186" height="24.557" filterUnits="userSpaceOnUse">
      <feOffset dy="3" input="SourceAlpha"/>
      <feGaussianBlur stdDeviation="3" result="blur-2"/>
      <feFlood flood-opacity="0.161"/>
      <feComposite operator="in" in2="blur-2"/>
      <feComposite in="SourceGraphic"/>
    </filter>
    <filter id="Path_49" x="25.848" y="457.853" width="28.788" height="34.134" filterUnits="userSpaceOnUse">
      <feOffset dy="3" input="SourceAlpha"/>
      <feGaussianBlur stdDeviation="3" result="blur-3"/>
      <feFlood flood-opacity="0.161"/>
      <feComposite operator="in" in2="blur-3"/>
      <feComposite in="SourceGraphic"/>
    </filter>
    <filter id="Path_50" x="32.331" y="453.916" width="48.813" height="33.701" filterUnits="userSpaceOnUse">
      <feOffset dy="3" input="SourceAlpha"/>
      <feGaussianBlur stdDeviation="3" result="blur-4"/>
      <feFlood flood-opacity="0.161"/>
      <feComposite operator="in" in2="blur-4"/>
      <feComposite in="SourceGraphic"/>
    </filter>
  </defs>
  <g id="_001-customer" data-name="001-customer" class="cls-1" transform="translate(34.848 442.688)">
    <g id="Group_17" data-name="Group 17" transform="translate(15.299)">
      <g id="Group_16" data-name="Group 16">
        <g class="cls-6" transform="matrix(1, 0, 0, 1, -50.15, -442.69)">
          <path id="Path_47-2" data-name="Path 47" class="cls-2" d="M214.473,0a4.5,4.5,0,0,0-4.444,4.444,4.5,4.5,0,0,0,4.444,4.444,4.444,4.444,0,0,0,0-8.888Z" transform="translate(-159.88 442.69)"/>
        </g>
      </g>
    </g>
    <g id="Group_19" data-name="Group 19" transform="translate(13.113 8.888)">
      <g id="Group_18" data-name="Group 18">
        <g class="cls-5" transform="matrix(1, 0, 0, 1, -47.96, -451.58)">
          <path id="Path_48-2" data-name="Path 48" class="cls-2" d="M191.51,122a6.517,6.517,0,0,1-4.851,2.186A6.676,6.676,0,0,1,181.734,122a6.506,6.506,0,0,0-1.705,4.371v1.093a1.092,1.092,0,0,0,1.093,1.093h11a1.092,1.092,0,0,0,1.093-1.093v-1.093A6.506,6.506,0,0,0,191.51,122Z" transform="translate(-132.07 329.58)"/>
        </g>
      </g>
    </g>
    <g id="Group_21" data-name="Group 21" transform="translate(0 21.165)">
      <g id="Group_20" data-name="Group 20">
        <g class="cls-4" transform="matrix(1, 0, 0, 1, -34.85, -463.85)">
          <path id="Path_49-2" data-name="Path 49" class="cls-2" d="M10.582,302.907,5.013,291.742a2.185,2.185,0,0,0-2.926-.983l-1.455.721a1.094,1.094,0,0,0-.492,1.468L6.7,306.061a1.094,1.094,0,0,0,1.463.491l1.437-.712A2.186,2.186,0,0,0,10.582,302.907Z" transform="translate(34.82 173.32)"/>
        </g>
      </g>
    </g>
    <g id="Group_23" data-name="Group 23" transform="translate(6.483 17.227)">
      <g id="Group_22" data-name="Group 22">
        <g class="cls-3" transform="matrix(1, 0, 0, 1, -41.33, -459.92)">
          <path id="Path_50-2" data-name="Path 50" class="cls-2" d="M118.937,237.3a2.179,2.179,0,0,0-2.885.284l-5.974,7.343a2.641,2.641,0,0,1-1.617.7h-5.092a1.093,1.093,0,0,1,0-2.186h4.371a2.185,2.185,0,1,0,0-4.371h-5.726c-.545,0-.816-.345-1.246-.721a7.6,7.6,0,0,0-6.784-1.661,7.972,7.972,0,0,0-3.355,1.675l-.032-.026-1.581,1.391,6.211,12.455h12.512a6.583,6.583,0,0,0,5.245-2.623l6.411-9.179A2.2,2.2,0,0,0,118.937,237.3Z" transform="translate(-47.69 223.44)"/>
        </g>
      </g>
    </g>
  </g>
</svg>
