<svg xmlns="http://www.w3.org/2000/svg" xmlns:xlink="http://www.w3.org/1999/xlink" viewBox="25 241.983 57 48.643">
  <defs>
    <style>
      .cls-1 {
        opacity: 0.85;
      }

      .cls-2 {
        fill: #fff;
      }

      .cls-3 {
        filter: url(#Path_56);
      }
    </style>
    <filter id="Path_56" x="25" y="241.983" width="57" height="48.643" filterUnits="userSpaceOnUse">
      <feOffset dy="3" input="SourceAlpha"/>
      <feGaussianBlur stdDeviation="3" result="blur"/>
      <feFlood flood-opacity="0.161"/>
      <feComposite operator="in" in2="blur"/>
      <feComposite in="SourceGraphic"/>
    </filter>
  </defs>
  <g id="_004-dashboard" data-name="004-dashboard" class="cls-1" transform="translate(34 247.983)">
    <g class="cls-3" transform="matrix(1, 0, 0, 1, -34, -247.98)">
      <path id="Path_56-2" data-name="Path 56" class="cls-2" d="M37.455,66.741A19.156,19.156,0,0,0,27.074,56.36a19.334,19.334,0,0,0-15.148,0A19.16,19.16,0,0,0,1.545,66.741,19.455,19.455,0,0,0,3.069,84.827a1.324,1.324,0,0,0,1.175.631H34.756a1.324,1.324,0,0,0,1.175-.631,19.457,19.457,0,0,0,1.524-18.086ZM17.53,58.417a2.784,2.784,0,1,1-.816,1.969A2.684,2.684,0,0,1,17.53,58.417ZM7.541,76.285a2.686,2.686,0,0,1-1.97.817A2.685,2.685,0,0,1,3.6,76.285a2.785,2.785,0,0,1,0-3.939,2.684,2.684,0,0,1,1.969-.816,2.683,2.683,0,0,1,1.97.816,2.784,2.784,0,0,1,0,3.939Zm4.179-9.75a2.785,2.785,0,0,1-3.94,0,2.786,2.786,0,0,1,1.97-4.755,2.785,2.785,0,0,1,1.97,4.755Zm12.329.185-2.2,8.314a4.138,4.138,0,0,1,1.568,1.98,4.186,4.186,0,0,1-1.807,5.093,4.068,4.068,0,0,1-3.178.435A4,4,0,0,1,15.887,80.6a4.167,4.167,0,0,1,.936-5.321,4.136,4.136,0,0,1,2.328-.947l2.2-8.314a1.374,1.374,0,0,1,.653-.86,1.3,1.3,0,0,1,1.045-.141,1.425,1.425,0,0,1,1,1.7Zm3.232-.185a2.784,2.784,0,1,1,1.97.816A2.683,2.683,0,0,1,27.28,66.535Zm8.118,9.75a2.785,2.785,0,1,1,.816-1.97A2.685,2.685,0,0,1,35.4,76.285Z" transform="translate(34 193.17)"/>
    </g>
  </g>
</svg>
