<svg xmlns="http://www.w3.org/2000/svg" xmlns:xlink="http://www.w3.org/1999/xlink" viewBox="25 303.346 57 51">
  <defs>
    <style>
      .cls-1 {
        opacity: 0.85;
      }

      .cls-2 {
        fill: #fff;
      }

      .cls-3 {
        filter: url(#Path_57);
      }
    </style>
    <filter id="Path_57" x="25" y="303.346" width="57" height="51" filterUnits="userSpaceOnUse">
      <feOffset dy="3" input="SourceAlpha"/>
      <feGaussianBlur stdDeviation="3" result="blur"/>
      <feFlood flood-opacity="0.161"/>
      <feComposite operator="in" in2="blur"/>
      <feComposite in="SourceGraphic"/>
    </filter>
  </defs>
  <g id="folder-closed-black-shape" class="cls-1" transform="translate(34 309.346)">
    <g class="cls-3" transform="matrix(1, 0, 0, 1, -34, -309.35)">
      <path id="Path_57-2" data-name="Path 57" class="cls-2" d="M37.453,44.091a5.052,5.052,0,0,0-3.7-1.547H18v-.75a5.052,5.052,0,0,0-1.547-3.7,5.053,5.053,0,0,0-3.7-1.547H5.25a5.052,5.052,0,0,0-3.7,1.547A5.051,5.051,0,0,0,0,41.794v22.5A5.051,5.051,0,0,0,1.547,68a5.052,5.052,0,0,0,3.7,1.547h28.5A5.282,5.282,0,0,0,39,64.294v-16.5A5.052,5.052,0,0,0,37.453,44.091Z" transform="translate(34 272.8)"/>
    </g>
  </g>
</svg>
