<svg xmlns="http://www.w3.org/2000/svg" viewBox="1066.909 -1127.983 20.073 20.073">
  <defs>
    <style>
      .cls-1 {
        fill: #505050;
      }
    </style>
  </defs>
  <g data-name="Group 3" transform="translate(1066.909 -1127.983)">
    <g data-name="Group 2">
      <path data-name="Path 7" class="cls-1" d="M12.964,15.055h-.836a.418.418,0,0,0-.418.418V18.4H1.673V1.673H11.71V4.6a.418.418,0,0,0,.418.418h.836a.418.418,0,0,0,.418-.418V1.673A1.673,1.673,0,0,0,11.71,0H1.673A1.673,1.673,0,0,0,0,1.673V18.4a1.673,1.673,0,0,0,1.673,1.673H11.71A1.673,1.673,0,0,0,13.382,18.4V15.473A.418.418,0,0,0,12.964,15.055Z"/>
      <path data-name="Path 8" class="cls-1" d="M142.92,132.7l-5.018-4.6a.418.418,0,0,0-.7.308v.836a.418.418,0,0,0,.138.311l2.907,2.617H128.418a.418.418,0,0,0-.418.418v.836a.418.418,0,0,0,.418.418h11.828l-2.907,2.617a.418.418,0,0,0-.138.311v.836a.418.418,0,0,0,.25.383.412.412,0,0,0,.168.036.42.42,0,0,0,.283-.11l5.018-4.6a.418.418,0,0,0,0-.617Z" transform="translate(-122.982 -122.975)"/>
    </g>
  </g>
</svg>
