<svg xmlns="http://www.w3.org/2000/svg" xmlns:xlink="http://www.w3.org/1999/xlink" viewBox="1375.256 1611 57 57">
  <defs>
    <style>
      .cls-1 {
        fill: #fff;
      }

      .cls-2 {
        fill: #004c91;
      }

      .cls-3 {
        filter: url(#Path_138);
      }
    </style>
    <filter id="Path_138" x="1375.256" y="1611" width="57" height="57" filterUnits="userSpaceOnUse">
      <feOffset dy="3" input="SourceAlpha"/>
      <feGaussianBlur stdDeviation="3" result="blur"/>
      <feFlood flood-opacity="0.161"/>
      <feComposite operator="in" in2="blur"/>
      <feComposite in="SourceGraphic"/>
    </filter>
  </defs>
  <g id="Group_88" data-name="Group 88" transform="translate(1350 896)">
    <g class="cls-3" transform="matrix(1, 0, 0, 1, -1350, -896)">
      <path id="Path_138-2" data-name="Path 138" class="cls-1" d="M39,19.505A19.5,19.5,0,1,0,19.5,39,19.5,19.5,0,0,0,39,19.505Z" transform="translate(1384.26 1617)"/>
    </g>
    <path id="Path_139" data-name="Path 139" class="cls-2" d="M212.275,132.768a6.243,6.243,0,0,1,1.054-3.325,8.112,8.112,0,0,1,3.074-2.789,9.674,9.674,0,0,1,4.715-1.105,10.071,10.071,0,0,1,4.422.924,7.173,7.173,0,0,1,2.962,2.513,6.165,6.165,0,0,1,1.045,3.454,5.34,5.34,0,0,1-.6,2.573,7.877,7.877,0,0,1-1.416,1.908q-.82.8-2.945,2.7a11.971,11.971,0,0,0-.941.941,3.819,3.819,0,0,0-.527.743,3.626,3.626,0,0,0-.268.674q-.1.337-.285,1.183a1.922,1.922,0,0,1-2.055,1.8,2.1,2.1,0,0,1-1.511-.587,2.306,2.306,0,0,1-.613-1.744,6.124,6.124,0,0,1,1.641-4.378,27.309,27.309,0,0,1,2-1.909q1.105-.967,1.6-1.459a4.949,4.949,0,0,0,.829-1.1,2.652,2.652,0,0,0,.337-1.313,3.053,3.053,0,0,0-1.028-2.332,3.753,3.753,0,0,0-2.651-.95,3.667,3.667,0,0,0-2.8.959,7.643,7.643,0,0,0-1.52,2.824q-.587,1.952-2.228,1.952a2.189,2.189,0,0,1-1.632-.682A2.087,2.087,0,0,1,212.275,132.768ZM220.7,151.7a2.718,2.718,0,0,1-1.839-.682,2.392,2.392,0,0,1-.786-1.908,2.458,2.458,0,0,1,.76-1.831,2.567,2.567,0,0,1,1.865-.743,2.537,2.537,0,0,1,2.573,2.573,2.411,2.411,0,0,1-.777,1.9A2.623,2.623,0,0,1,220.7,151.7Z" transform="translate(-167.155 601.877)"/>
  </g>
</svg>
