<svg xmlns="http://www.w3.org/2000/svg" xmlns:xlink="http://www.w3.org/1999/xlink" viewBox="25.848 367.797 55.304 55.244">
  <defs>
    <style>
      .cls-1 {
        opacity: 0.85;
      }

      .cls-2 {
        fill: #fff;
      }

      .cls-3 {
        filter: url(#Ellipse_38);
      }

      .cls-4 {
        filter: url(#Path_53);
      }

      .cls-5 {
        filter: url(#Path_52);
      }

      .cls-6 {
        filter: url(#Ellipse_37);
      }

      .cls-7 {
        filter: url(#Path_51);
      }

      .cls-8 {
        filter: url(#Ellipse_36);
      }
    </style>
    <filter id="Ellipse_36" x="28.098" y="367.797" width="25.358" height="25.358" filterUnits="userSpaceOnUse">
      <feOffset dy="3" input="SourceAlpha"/>
      <feGaussianBlur stdDeviation="3" result="blur"/>
      <feFlood flood-opacity="0.161"/>
      <feComposite operator="in" in2="blur"/>
      <feComposite in="SourceGraphic"/>
    </filter>
    <filter id="Path_51" x="25.848" y="376.523" width="29.857" height="38.643" filterUnits="userSpaceOnUse">
      <feOffset dy="3" input="SourceAlpha"/>
      <feGaussianBlur stdDeviation="3" result="blur-2"/>
      <feFlood flood-opacity="0.161"/>
      <feComposite operator="in" in2="blur-2"/>
      <feComposite in="SourceGraphic"/>
    </filter>
    <filter id="Ellipse_37" x="53.575" y="367.797" width="25.358" height="25.358" filterUnits="userSpaceOnUse">
      <feOffset dy="3" input="SourceAlpha"/>
      <feGaussianBlur stdDeviation="3" result="blur-3"/>
      <feFlood flood-opacity="0.161"/>
      <feComposite operator="in" in2="blur-3"/>
      <feComposite in="SourceGraphic"/>
    </filter>
    <filter id="Path_52" x="51.295" y="376.492" width="29.857" height="38.613" filterUnits="userSpaceOnUse">
      <feOffset dy="3" input="SourceAlpha"/>
      <feGaussianBlur stdDeviation="3" result="blur-4"/>
      <feFlood flood-opacity="0.161"/>
      <feComposite operator="in" in2="blur-4"/>
      <feComposite in="SourceGraphic"/>
    </filter>
    <filter id="Path_53" x="37.735" y="381.417" width="31.59" height="41.623" filterUnits="userSpaceOnUse">
      <feOffset dy="3" input="SourceAlpha"/>
      <feGaussianBlur stdDeviation="3" result="blur-5"/>
      <feFlood flood-opacity="0.161"/>
      <feComposite operator="in" in2="blur-5"/>
      <feComposite in="SourceGraphic"/>
    </filter>
    <filter id="Ellipse_38" x="40.289" y="371.445" width="26.452" height="26.452" filterUnits="userSpaceOnUse">
      <feOffset dy="3" input="SourceAlpha"/>
      <feGaussianBlur stdDeviation="3" result="blur-6"/>
      <feFlood flood-opacity="0.161"/>
      <feComposite operator="in" in2="blur-6"/>
      <feComposite in="SourceGraphic"/>
    </filter>
  </defs>
  <g id="_002-team" data-name="002-team" class="cls-1" transform="translate(34.848 373.797)">
    <g class="cls-8" transform="matrix(1, 0, 0, 1, -34.85, -373.8)">
      <ellipse id="Ellipse_36-2" data-name="Ellipse 36" class="cls-2" cx="3.679" cy="3.679" rx="3.679" ry="3.679" transform="translate(37.1 373.8)"/>
    </g>
    <g class="cls-7" transform="matrix(1, 0, 0, 1, -34.85, -373.8)">
      <path id="Path_51-2" data-name="Path 51" class="cls-2" d="M1.824,40.322h.365v7.3a1.829,1.829,0,0,0,1.824,1.824H7.844a1.829,1.829,0,0,0,1.824-1.824v-.425a4.611,4.611,0,0,1-.547-2.128V35.519a4.55,4.55,0,0,1,2.736-4.165v-.73A1.83,1.83,0,0,0,10.033,28.8H1.824A1.83,1.83,0,0,0,0,30.624V38.5A1.81,1.81,0,0,0,1.824,40.322Z" transform="translate(34.85 353.72)"/>
    </g>
    <g class="cls-6" transform="matrix(1, 0, 0, 1, -34.85, -373.8)">
      <ellipse id="Ellipse_37-2" data-name="Ellipse 37" class="cls-2" cx="3.679" cy="3.679" rx="3.679" ry="3.679" transform="translate(62.58 373.8)"/>
    </g>
    <g class="cls-5" transform="matrix(1, 0, 0, 1, -34.85, -373.8)">
      <path id="Path_52-2" data-name="Path 52" class="cls-2" d="M83.7,30.524v.73a4.549,4.549,0,0,1,2.736,4.165v9.516a4.27,4.27,0,0,1-.547,2.128v.426a1.829,1.829,0,0,0,1.824,1.824h3.831a1.83,1.83,0,0,0,1.824-1.824v-7.3h.365a1.829,1.829,0,0,0,1.824-1.824V30.524A1.829,1.829,0,0,0,93.732,28.7H85.523A1.83,1.83,0,0,0,83.7,30.524Z" transform="translate(-23.4 353.79)"/>
    </g>
    <g class="cls-4" transform="matrix(1, 0, 0, 1, -34.85, -373.8)">
      <path id="Path_53-2" data-name="Path 53" class="cls-2" d="M39.1,46.724h0V56.27a1.83,1.83,0,0,0,1.824,1.824h.7v8.6a1.83,1.83,0,0,0,1.824,1.824h4.895A1.83,1.83,0,0,0,50.167,66.7V58.064h.7A1.829,1.829,0,0,0,52.69,56.24V46.724h0A1.83,1.83,0,0,0,50.866,44.9H40.924A1.81,1.81,0,0,0,39.1,46.724Z" transform="translate(7.64 342.52)"/>
    </g>
    <g class="cls-3" transform="matrix(1, 0, 0, 1, -34.85, -373.8)">
      <circle id="Ellipse_38-2" data-name="Ellipse 38" class="cls-2" cx="4.226" cy="4.226" r="4.226" transform="translate(49.29 377.45)"/>
    </g>
  </g>
</svg>
