<svg version="1.1" xmlns="http://www.w3.org/2000/svg" xmlns:xlink="http://www.w3.org/1999/xlink" x="0px" y="0px"
	 viewBox="0 0 106.2 106.2" style="enable-background:new 0 0 106.2 106.2;" xml:space="preserve">
	<style type="text/css">
		.st0{fill:#C89D00;}
	</style>
	<path class="st0" d="M102.4,84.3L71.2,53.1l31.2-31.2c4.8-5.2,4.6-13.3-0.6-18.1c-4.9-4.6-12.6-4.6-17.5,0L53.1,35
		L21.9,3.8c-5-5-13.1-5-18.1,0s-5,13.1,0,18.1c0,0,0,0,0,0L35,53.1L3.7,84.3c-4.8,5.2-4.6,13.3,0.6,18.1c4.9,4.6,12.6,4.6,17.5,0
		l31.2-31.2l31.2,31.2c5,5,13.1,5,18.1,0C107.4,97.4,107.4,89.3,102.4,84.3C102.4,84.3,102.4,84.3,102.4,84.3z"/>
</svg>
