<?xml version="1.0" standalone="no"?>
<!DOCTYPE svg PUBLIC "-//W3C//DTD SVG 20010904//EN"
 "http://www.w3.org/TR/2001/REC-SVG-20010904/DTD/svg10.dtd">
<svg version="1.0" xmlns="http://www.w3.org/2000/svg"
 width="700.000000pt" height="700.000000pt" viewBox="0 0 700.000000 700.000000"
 preserveAspectRatio="xMidYMid meet">
<metadata>
Created by potrace 1.11, written by Peter Selinger 2001-2013
</metadata>
<g transform="translate(0.000000,700.000000) scale(0.100000,-0.100000)"
fill="#000000" stroke="none">
<path d="M3228 6739 c-931 -82 -1772 -550 -2327 -1294 -448 -599 -668 -1290
-648 -2030 14 -514 127 -958 358 -1405 167 -322 428 -661 672 -872 l59 -52 32
19 c17 10 267 146 556 301 289 156 545 301 570 322 25 22 59 63 75 93 l30 54
3 228 3 228 -65 103 c-127 199 -226 406 -296 620 -27 81 -40 105 -71 133 -50
45 -94 115 -113 182 -13 45 -16 110 -16 355 0 354 8 399 86 501 23 30 23 31
27 455 3 393 5 431 25 505 120 459 473 730 1041 801 225 28 572 14 766 -30
370 -85 636 -274 775 -551 28 -56 62 -144 77 -200 26 -99 27 -104 31 -524 l4
-425 39 -65 c22 -36 45 -81 51 -101 16 -47 23 -624 8 -692 -5 -27 -22 -75 -38
-106 -30 -63 -127 -166 -184 -196 -33 -18 -40 -30 -73 -120 -74 -201 -241
-505 -337 -616 l-40 -45 4 -220 c3 -204 5 -224 26 -271 13 -28 38 -65 55 -82
19 -18 261 -147 587 -313 305 -155 571 -295 591 -310 76 -59 79 -59 159 12 90
81 257 265 352 390 271 353 469 766 577 1204 96 389 116 842 55 1255 -122 836
-584 1608 -1269 2119 -503 376 -1053 585 -1685 641 -130 11 -402 11 -532 -1z"/>
<path d="M3260 5710 c-489 -60 -759 -252 -850 -606 -20 -74 -21 -107 -20 -529
l0 -451 -48 -46 c-30 -29 -53 -62 -60 -86 -16 -51 -16 -511 -1 -567 13 -49 52
-102 85 -117 20 -9 31 -33 59 -123 47 -151 103 -284 174 -421 62 -118 166
-281 208 -325 l24 -27 -3 -298 -3 -299 -33 -75 c-39 -91 -103 -179 -171 -234
-46 -38 -1048 -586 -1071 -586 -28 0 -1 -26 89 -86 80 -53 109 -67 154 -73 41
-5 80 -22 150 -64 53 -31 97 -60 99 -64 5 -12 333 -162 413 -189 219 -74 547
-143 876 -184 151 -18 475 -13 611 10 480 82 1004 283 1344 516 76 52 139 100
139 107 0 13 -140 88 -730 387 -397 202 -400 204 -476 279 -83 83 -137 179
-158 279 -6 31 -11 164 -11 314 l0 261 44 42 c106 102 273 403 369 666 l52
141 65 24 c76 27 123 72 140 134 7 27 10 130 8 298 l-3 257 -27 45 c-14 25
-40 58 -57 75 l-32 29 1 456 c1 427 0 460 -19 534 -32 120 -93 226 -186 321
-133 136 -294 212 -540 256 -136 24 -475 34 -605 19z"/>
</g>
</svg>
